# Blender v2.93.1 OBJ File: ''
# www.blender.org
mtllib untitled.mtl
o Cube
v 1.000000 0.123435 -1.000000
v 1.000000 -0.052049 -1.000000
v 1.000000 0.123435 1.000000
v 1.000000 -0.052049 1.000000
v -1.000000 0.123435 -1.000000
v -1.000000 -0.052049 -1.000000
v -1.000000 0.123435 1.000000
v -1.000000 -0.052049 1.000000
v -0.880724 -0.052049 -1.000000
v -0.880724 0.123435 1.000000
v -0.880724 -0.052049 1.000000
v -0.880724 0.123435 -1.000000
v -1.000000 -0.052049 0.865177
v 1.000000 0.123435 0.865177
v -1.000000 0.123435 0.865177
v 1.000000 -0.052049 0.865177
v -0.880724 -0.052049 0.865177
v -0.880724 0.123435 0.865177
v 0.876013 -0.052049 1.000000
v 0.876013 0.123435 -1.000000
v 0.876013 -0.052049 -1.000000
v 0.876013 0.123435 1.000000
v 0.876013 0.123435 0.865177
v 0.876013 -0.052049 0.865177
v -1.000000 0.123435 -0.791181
v 1.000000 -0.052049 -0.791181
v -1.000000 -0.052049 -0.791181
v 1.000000 0.123435 -0.791181
v -0.880724 -0.052049 -0.791181
v -0.880724 0.123435 -0.791181
v 0.876013 -0.052049 -0.791181
v 0.876013 0.123435 -0.791181
v -0.880724 -0.052049 -1.000000
v -0.880724 0.123435 1.000000
v -0.880724 -0.052049 0.865177
v -0.880724 -0.052049 1.000000
v -0.880724 0.123435 -1.000000
v -0.880724 0.123435 0.865177
v -0.880724 -0.052049 -0.791181
v -0.880724 0.052049 -0.791181
v 0.876013 -0.052049 1.000000
v 0.876013 0.123435 -1.000000
v 0.876013 0.123435 0.865177
v 0.876013 0.052049 -0.791181
v 0.876013 -0.052049 -1.000000
v 0.876013 0.123435 1.000000
v 0.876013 -0.052049 0.865177
v 0.876013 -0.052049 -0.791181
v -1.000000 -0.052049 0.865177
v 1.000000 0.123435 0.865177
v -0.880724 -0.052049 0.865177
v -0.880724 0.123435 0.865177
v 0.876013 -0.052049 0.865177
v 0.876013 0.123435 0.865177
v -1.000000 0.123435 0.865177
v 1.000000 -0.052049 0.865177
v -0.880724 -0.052049 0.865177
v -0.880724 0.052049 0.865177
v 0.876013 0.052049 0.865177
v 0.876013 -0.052049 0.865177
v -1.000000 0.123435 -0.791181
v 1.000000 -0.052049 -0.791181
v -1.000000 -0.052049 -0.791181
v 1.000000 0.123435 -0.791181
v -0.880724 -0.052049 -0.791181
v -0.880724 0.123435 -0.791181
v 0.876013 -0.052049 -0.791181
v 0.876013 0.123435 -0.791181
v -0.880724 -0.052049 -0.791181
v -0.880724 0.052049 -0.791181
v 0.876013 0.052049 -0.791181
v 0.876013 -0.052049 -0.791181
v -1.000000 0.123435 -0.834699
v 1.000000 -0.052049 -0.834699
v -1.000000 -0.052049 -0.834699
v 1.000000 0.123435 -0.834699
v -0.880724 -0.052049 -0.834699
v -0.880724 0.123435 -0.834699
v 0.876013 -0.052049 -0.834699
v 0.876013 0.123435 -0.834699
v -0.880724 0.052049 -0.834699
v -0.880724 -0.052049 -0.834699
v 0.876013 0.052049 -0.834699
v 0.876013 -0.052049 -0.834699
v -1.000000 0.123435 -0.834699
v 1.000000 -0.052049 -0.834699
v -1.000000 -0.052049 -0.834699
v 1.000000 0.123435 -0.834699
v -0.880724 -0.052049 -0.834699
v -0.880724 0.123435 -0.834699
v 0.876013 -0.052049 -0.834699
v 0.876013 0.123435 -0.834699
v -0.880724 0.123435 -0.834699
v -0.880724 -0.052049 -0.834699
v 0.876013 0.123435 -0.834699
v 0.876013 -0.052049 -0.834699
vt 0.860090 0.733147
vt 0.875000 0.733147
vt 0.875000 0.750000
vt 0.860090 0.750000
vt 0.375000 0.985090
vt 0.625000 0.985090
vt 0.625000 1.000000
vt 0.375000 1.000000
vt 0.375000 0.229337
vt 0.625000 0.229337
vt 0.625000 0.250000
vt 0.375000 0.250000
vt 0.359502 0.733147
vt 0.375000 0.733147
vt 0.375000 0.750000
vt 0.359502 0.750000
vt 0.625000 0.733147
vt 0.625000 0.750000
vt 0.375000 0.484502
vt 0.625000 0.484502
vt 0.625000 0.500000
vt 0.375000 0.500000
vt 0.625000 0.264910
vt 0.375000 0.264910
vt 0.125000 0.733147
vt 0.139910 0.733147
vt 0.139910 0.750000
vt 0.125000 0.750000
vt 0.375000 0.985090
vt 0.625000 0.985090
vt 0.860090 0.733147
vt 0.860090 0.750000
vt 0.860090 0.733147
vt 0.860090 0.733147
vt 0.125000 0.733147
vt 0.139910 0.733147
vt 0.375000 0.733147
vt 0.625000 0.733147
vt 0.359502 0.733147
vt 0.375000 0.000000
vt 0.625000 0.000000
vt 0.625000 0.016853
vt 0.375000 0.016853
vt 0.875000 0.733147
vt 0.359502 0.733147
vt 0.359502 0.733147
vt 0.640498 0.733147
vt 0.640498 0.733147
vt 0.640498 0.750000
vt 0.625000 0.765498
vt 0.375000 0.765498
vt 0.375000 0.484502
vt 0.625000 0.484502
vt 0.359502 0.750000
vt 0.625000 0.520663
vt 0.640498 0.520663
vt 0.640498 0.526102
vt 0.625000 0.526102
vt 0.359502 0.520663
vt 0.359502 0.520663
vt 0.359502 0.526102
vt 0.359502 0.526102
vt 0.860090 0.520663
vt 0.875000 0.520663
vt 0.875000 0.526102
vt 0.860090 0.526102
vt 0.375000 0.520663
vt 0.375000 0.526102
vt 0.125000 0.520663
vt 0.139910 0.520663
vt 0.139910 0.526102
vt 0.125000 0.526102
vt 0.860090 0.520663
vt 0.860090 0.526102
vt 0.375000 0.223898
vt 0.625000 0.223898
vt 0.625000 0.223898
vt 0.375000 0.223898
vt 0.640498 0.520663
vt 0.640498 0.526102
vt 0.139910 0.520663
vt 0.139910 0.526102
vt 0.139910 0.733147
vt 0.139910 0.750000
vt 0.625000 0.264910
vt 0.375000 0.264910
vt 0.139910 0.733147
vt 0.640498 0.733147
vt 0.640498 0.733147
vt 0.640498 0.750000
vt 0.375000 0.765498
vt 0.625000 0.765498
vt 0.139910 0.526102
vt 0.359502 0.526102
vt 0.640498 0.526102
vt 0.640498 0.526102
vt 0.860090 0.526102
vt 0.139910 0.526102
vt 0.625000 0.016853
vt 0.375000 0.016853
vt 0.625000 0.526102
vt 0.359502 0.526102
vt 0.860090 0.526102
vt 0.875000 0.526102
vt 0.375000 0.526102
vt 0.125000 0.526102
vt 0.139910 0.520663
vt 0.359502 0.520663
vt 0.640498 0.520663
vt 0.640498 0.520663
vt 0.139910 0.520663
vt 0.860090 0.520663
vt 0.860090 0.520663
vt 0.125000 0.520663
vt 0.375000 0.520663
vt 0.625000 0.520663
vt 0.359502 0.520663
vt 0.875000 0.520663
vt 0.625000 0.229337
vt 0.375000 0.229337
vt 0.640498 0.500000
vt 0.359502 0.500000
vt 0.359502 0.500000
vt 0.860090 0.500000
vt 0.875000 0.500000
vt 0.125000 0.500000
vt 0.139910 0.500000
vt 0.860090 0.500000
vt 0.640498 0.500000
vt 0.139910 0.500000
vn 0.0000 1.0000 0.0000
vn 0.0000 0.0000 1.0000
vn -1.0000 0.0000 0.0000
vn 0.0000 -1.0000 0.0000
vn 1.0000 0.0000 0.0000
vn 0.0000 0.0000 -1.0000
usemtl Material
s off
f 18/1/1 15/2/1 7/3/1 10/4/1
f 11/5/2 10/6/2 7/7/2 8/8/2
f 87/9/3 85/10/3 5/11/3 6/12/3
f 24/13/4 16/14/4 4/15/4 19/16/4
f 16/14/5 14/17/5 3/18/5 4/15/5
f 21/19/6 20/20/6 1/21/6 2/22/6
f 6/12/6 5/11/6 12/23/6 9/24/6
f 13/25/4 17/26/4 11/27/4 8/28/4
f 36/29/2 34/30/2 10/6/2 11/5/2
f 38/31/2 18/1/2 10/4/2 34/32/2
f 58/33/2 52/34/2 18/1/2 38/31/2
f 49/35/2 51/36/2 17/26/2 13/25/2
f 56/37/2 50/38/2 14/17/2 16/14/2
f 53/39/2 56/37/2 16/14/2 24/13/2
f 8/40/3 7/41/3 15/42/3 13/43/3
f 52/34/2 55/44/2 15/2/2 18/1/2
f 60/45/2 53/39/2 24/13/2 47/46/2
f 50/38/2 54/47/2 23/48/2 14/17/2
f 14/17/1 23/48/1 22/49/1 3/18/1
f 4/15/2 3/18/2 22/50/2 19/51/2
f 45/52/2 42/53/2 20/20/2 21/19/2
f 47/46/2 24/13/2 19/16/2 41/54/2
f 76/55/1 80/56/1 32/57/1 28/58/1
f 84/59/2 79/60/2 31/61/2 48/62/2
f 78/63/1 73/64/1 25/65/1 30/66/1
f 79/60/4 74/67/4 26/68/4 31/61/4
f 74/67/5 76/55/5 28/58/5 26/68/5
f 75/69/4 77/70/4 29/71/4 27/72/4
f 81/73/5 78/63/5 30/66/5 40/74/5
f 63/75/2 61/76/2 25/77/2 27/78/2
f 83/79/1 81/73/1 40/74/1 44/80/1
f 77/70/2 82/81/2 39/82/2 29/71/2
f 17/26/2 35/83/2 36/84/2 11/27/2
f 9/24/2 12/23/2 37/85/2 33/86/2
f 51/36/2 57/87/2 35/83/2 17/26/2
f 59/88/6 58/33/6 38/31/6 43/89/6
f 43/89/1 38/31/1 34/32/1 46/90/1
f 41/91/2 46/92/2 34/30/2 36/29/2
f 19/51/2 22/50/2 46/92/2 41/91/2
f 23/48/2 43/89/2 46/90/2 22/49/2
f 54/47/2 59/88/2 43/89/2 23/48/2
f 80/56/3 83/79/3 44/80/3 32/57/3
f 82/81/4 84/59/4 48/62/4 39/82/4
f 35/83/4 47/46/4 41/54/4 36/84/4
f 33/86/6 37/85/6 42/53/6 45/52/6
f 57/87/2 60/45/2 47/46/2 35/83/2
f 69/93/4 72/94/4 60/45/4 57/87/4
f 68/95/3 71/96/3 59/88/3 54/47/3
f 71/96/1 70/97/1 58/33/1 59/88/1
f 65/98/2 69/93/2 57/87/2 51/36/2
f 13/43/2 15/42/2 55/99/2 49/100/2
f 64/101/1 68/95/1 54/47/1 50/38/1
f 72/94/2 67/102/2 53/39/2 60/45/2
f 66/103/1 61/104/1 55/44/1 52/34/1
f 67/102/4 62/105/4 56/37/4 53/39/4
f 62/105/5 64/101/5 50/38/5 56/37/5
f 63/106/4 65/98/4 51/36/4 49/35/4
f 70/97/5 66/103/5 52/34/5 58/33/5
f 40/74/2 30/66/2 66/103/2 70/97/2
f 27/72/2 29/71/2 65/98/2 63/106/2
f 26/68/2 28/58/2 64/101/2 62/105/2
f 31/61/2 26/68/2 62/105/2 67/102/2
f 30/66/2 25/65/2 61/104/2 66/103/2
f 48/62/2 31/61/2 67/102/2 72/94/2
f 28/58/2 32/57/2 68/95/2 64/101/2
f 29/71/2 39/82/2 69/93/2 65/98/2
f 44/80/2 40/74/2 70/97/2 71/96/2
f 32/57/2 44/80/2 71/96/2 68/95/2
f 39/82/2 48/62/2 72/94/2 69/93/2
f 49/100/3 55/99/3 61/76/3 63/75/3
f 94/107/2 96/108/2 84/59/2 82/81/2
f 92/109/2 95/110/2 83/79/2 80/56/2
f 89/111/2 94/107/2 82/81/2 77/70/2
f 95/110/2 93/112/2 81/73/2 83/79/2
f 93/112/2 90/113/2 78/63/2 81/73/2
f 87/114/2 89/111/2 77/70/2 75/69/2
f 86/115/2 88/116/2 76/55/2 74/67/2
f 91/117/2 86/115/2 74/67/2 79/60/2
f 90/113/2 85/118/2 73/64/2 78/63/2
f 96/108/2 91/117/2 79/60/2 84/59/2
f 88/116/2 92/109/2 80/56/2 76/55/2
f 27/78/3 25/77/3 73/119/3 75/120/3
f 1/21/1 20/121/1 92/109/1 88/116/1
f 45/122/2 21/123/2 91/117/2 96/108/2
f 12/124/1 5/125/1 85/118/1 90/113/1
f 21/123/4 2/22/4 86/115/4 91/117/4
f 2/22/5 1/21/5 88/116/5 86/115/5
f 6/126/4 9/127/4 89/111/4 87/114/4
f 37/128/2 12/124/2 90/113/2 93/112/2
f 42/129/1 37/128/1 93/112/1 95/110/1
f 9/127/2 33/130/2 94/107/2 89/111/2
f 20/121/2 42/129/2 95/110/2 92/109/2
f 33/130/4 45/122/4 96/108/4 94/107/4
f 75/120/2 73/119/2 85/10/2 87/9/2
